<mxfile host="Electron" agent="Mozilla/5.0 (Windows NT 10.0; Win64; x64) AppleWebKit/537.36 (KHTML, like Gecko) draw.io/28.1.2 Chrome/138.0.7204.243 Electron/37.4.0 Safari/537.36" version="28.1.2">
  <diagram name="Página-1" id="X0To58uQ7GYdjdquckBQ">
    <mxGraphModel dx="1240" dy="731" grid="1" gridSize="10" guides="1" tooltips="1" connect="1" arrows="1" fold="1" page="1" pageScale="1" pageWidth="827" pageHeight="1169" math="0" shadow="0">
      <root>
        <mxCell id="0" />
        <mxCell id="1" parent="0" />
        <mxCell id="YayC0Eqr5XEf3r0A4OdQ-1" value="&lt;font style=&quot;&quot;&gt;&lt;span style=&quot;font-size: 18px;&quot;&gt;&lt;b&gt;Funcionamento API&lt;/b&gt;&lt;/span&gt;&lt;br&gt;&lt;font&gt;&lt;u style=&quot;&quot;&gt;Rotas de login&lt;/u&gt;&lt;/font&gt;&lt;/font&gt;" style="text;html=1;align=center;verticalAlign=middle;resizable=0;points=[];autosize=1;strokeColor=none;fillColor=none;" vertex="1" parent="1">
          <mxGeometry x="319" width="190" height="50" as="geometry" />
        </mxCell>
        <mxCell id="YayC0Eqr5XEf3r0A4OdQ-36" style="edgeStyle=orthogonalEdgeStyle;rounded=0;orthogonalLoop=1;jettySize=auto;html=1;exitX=1;exitY=0.5;exitDx=0;exitDy=0;entryX=0;entryY=0.5;entryDx=0;entryDy=0;" edge="1" parent="1" source="YayC0Eqr5XEf3r0A4OdQ-2" target="YayC0Eqr5XEf3r0A4OdQ-6">
          <mxGeometry relative="1" as="geometry" />
        </mxCell>
        <mxCell id="YayC0Eqr5XEf3r0A4OdQ-2" value="&lt;b&gt;Text input&lt;/b&gt;&lt;div&gt;&lt;span style=&quot;background-color: transparent; color: light-dark(rgb(0, 0, 0), rgb(255, 255, 255));&quot;&gt;usuário&lt;/span&gt;&lt;/div&gt;" style="rounded=1;whiteSpace=wrap;html=1;fillColor=#fff2cc;strokeColor=#d6b656;" vertex="1" parent="1">
          <mxGeometry x="20" y="90" width="110" height="50" as="geometry" />
        </mxCell>
        <mxCell id="YayC0Eqr5XEf3r0A4OdQ-35" style="edgeStyle=orthogonalEdgeStyle;rounded=0;orthogonalLoop=1;jettySize=auto;html=1;exitX=1;exitY=0.5;exitDx=0;exitDy=0;entryX=0;entryY=0.5;entryDx=0;entryDy=0;" edge="1" parent="1" source="YayC0Eqr5XEf3r0A4OdQ-3" target="YayC0Eqr5XEf3r0A4OdQ-6">
          <mxGeometry relative="1" as="geometry" />
        </mxCell>
        <mxCell id="YayC0Eqr5XEf3r0A4OdQ-3" value="&lt;b&gt;Text input&lt;/b&gt;&lt;div&gt;&lt;span style=&quot;background-color: transparent; color: light-dark(rgb(0, 0, 0), rgb(255, 255, 255));&quot;&gt;senha&lt;/span&gt;&lt;/div&gt;" style="rounded=1;whiteSpace=wrap;html=1;fillColor=#fff2cc;strokeColor=#d6b656;" vertex="1" parent="1">
          <mxGeometry x="20" y="150" width="110" height="50" as="geometry" />
        </mxCell>
        <mxCell id="YayC0Eqr5XEf3r0A4OdQ-7" style="edgeStyle=orthogonalEdgeStyle;rounded=0;orthogonalLoop=1;jettySize=auto;html=1;entryX=0;entryY=0.5;entryDx=0;entryDy=0;" edge="1" parent="1" source="YayC0Eqr5XEf3r0A4OdQ-4" target="YayC0Eqr5XEf3r0A4OdQ-6">
          <mxGeometry relative="1" as="geometry" />
        </mxCell>
        <mxCell id="YayC0Eqr5XEf3r0A4OdQ-4" value="&lt;b&gt;Button&lt;/b&gt;&lt;div&gt;botão de validação&lt;/div&gt;" style="rounded=1;whiteSpace=wrap;html=1;fillColor=#fff2cc;strokeColor=#d6b656;" vertex="1" parent="1">
          <mxGeometry x="20" y="210" width="110" height="50" as="geometry" />
        </mxCell>
        <mxCell id="YayC0Eqr5XEf3r0A4OdQ-5" value="Elementos do Front-end" style="text;html=1;align=center;verticalAlign=middle;resizable=0;points=[];autosize=1;strokeColor=none;fillColor=none;" vertex="1" parent="1">
          <mxGeometry y="50" width="150" height="30" as="geometry" />
        </mxCell>
        <mxCell id="YayC0Eqr5XEf3r0A4OdQ-9" style="edgeStyle=orthogonalEdgeStyle;rounded=0;orthogonalLoop=1;jettySize=auto;html=1;exitX=1;exitY=0.5;exitDx=0;exitDy=0;entryX=0;entryY=0.5;entryDx=0;entryDy=0;" edge="1" parent="1" source="YayC0Eqr5XEf3r0A4OdQ-6" target="YayC0Eqr5XEf3r0A4OdQ-8">
          <mxGeometry relative="1" as="geometry" />
        </mxCell>
        <mxCell id="YayC0Eqr5XEf3r0A4OdQ-6" value="Botão pressionado" style="rhombus;whiteSpace=wrap;html=1;fillColor=#dae8fc;strokeColor=#6c8ebf;" vertex="1" parent="1">
          <mxGeometry x="170" y="127.5" width="95" height="95" as="geometry" />
        </mxCell>
        <mxCell id="YayC0Eqr5XEf3r0A4OdQ-12" style="edgeStyle=orthogonalEdgeStyle;rounded=0;orthogonalLoop=1;jettySize=auto;html=1;exitX=1;exitY=0.5;exitDx=0;exitDy=0;entryX=0;entryY=0.5;entryDx=0;entryDy=0;" edge="1" parent="1" source="YayC0Eqr5XEf3r0A4OdQ-8" target="YayC0Eqr5XEf3r0A4OdQ-11">
          <mxGeometry relative="1" as="geometry" />
        </mxCell>
        <mxCell id="YayC0Eqr5XEf3r0A4OdQ-8" value="Rota POST para&lt;div&gt;/login&lt;/div&gt;" style="shape=parallelogram;perimeter=parallelogramPerimeter;whiteSpace=wrap;html=1;fixedSize=1;fillColor=#f8cecc;strokeColor=#b85450;" vertex="1" parent="1">
          <mxGeometry x="270" y="142.5" width="130" height="65" as="geometry" />
        </mxCell>
        <mxCell id="YayC0Eqr5XEf3r0A4OdQ-15" style="edgeStyle=orthogonalEdgeStyle;rounded=0;orthogonalLoop=1;jettySize=auto;html=1;exitX=1;exitY=0.5;exitDx=0;exitDy=0;entryX=0;entryY=0.5;entryDx=0;entryDy=0;" edge="1" parent="1" source="YayC0Eqr5XEf3r0A4OdQ-11" target="YayC0Eqr5XEf3r0A4OdQ-14">
          <mxGeometry relative="1" as="geometry" />
        </mxCell>
        <mxCell id="YayC0Eqr5XEf3r0A4OdQ-11" value="Extração do usuário e senha do front-end" style="rounded=0;whiteSpace=wrap;html=1;fillColor=#f8cecc;strokeColor=#b85450;" vertex="1" parent="1">
          <mxGeometry x="414" y="145" width="120" height="60" as="geometry" />
        </mxCell>
        <mxCell id="YayC0Eqr5XEf3r0A4OdQ-13" value="API" style="text;html=1;align=center;verticalAlign=middle;resizable=0;points=[];autosize=1;strokeColor=none;fillColor=none;" vertex="1" parent="1">
          <mxGeometry x="330" y="110" width="40" height="30" as="geometry" />
        </mxCell>
        <mxCell id="YayC0Eqr5XEf3r0A4OdQ-20" style="edgeStyle=orthogonalEdgeStyle;rounded=0;orthogonalLoop=1;jettySize=auto;html=1;exitX=0.25;exitY=1;exitDx=0;exitDy=0;entryX=0;entryY=0.5;entryDx=0;entryDy=0;" edge="1" parent="1" source="YayC0Eqr5XEf3r0A4OdQ-14" target="YayC0Eqr5XEf3r0A4OdQ-16">
          <mxGeometry relative="1" as="geometry" />
        </mxCell>
        <mxCell id="YayC0Eqr5XEf3r0A4OdQ-22" style="edgeStyle=orthogonalEdgeStyle;rounded=0;orthogonalLoop=1;jettySize=auto;html=1;exitX=0.25;exitY=1;exitDx=0;exitDy=0;entryX=0;entryY=0.5;entryDx=0;entryDy=0;" edge="1" parent="1" source="YayC0Eqr5XEf3r0A4OdQ-14" target="YayC0Eqr5XEf3r0A4OdQ-21">
          <mxGeometry relative="1" as="geometry" />
        </mxCell>
        <mxCell id="YayC0Eqr5XEf3r0A4OdQ-24" style="edgeStyle=orthogonalEdgeStyle;rounded=0;orthogonalLoop=1;jettySize=auto;html=1;exitX=0.25;exitY=1;exitDx=0;exitDy=0;entryX=0;entryY=0.5;entryDx=0;entryDy=0;" edge="1" parent="1" source="YayC0Eqr5XEf3r0A4OdQ-14" target="YayC0Eqr5XEf3r0A4OdQ-23">
          <mxGeometry relative="1" as="geometry" />
        </mxCell>
        <mxCell id="YayC0Eqr5XEf3r0A4OdQ-26" style="edgeStyle=orthogonalEdgeStyle;rounded=0;orthogonalLoop=1;jettySize=auto;html=1;entryX=0;entryY=0.5;entryDx=0;entryDy=0;" edge="1" parent="1" source="YayC0Eqr5XEf3r0A4OdQ-14" target="YayC0Eqr5XEf3r0A4OdQ-25">
          <mxGeometry relative="1" as="geometry" />
        </mxCell>
        <mxCell id="YayC0Eqr5XEf3r0A4OdQ-28" style="edgeStyle=orthogonalEdgeStyle;rounded=0;orthogonalLoop=1;jettySize=auto;html=1;exitX=0.25;exitY=1;exitDx=0;exitDy=0;entryX=0;entryY=0.5;entryDx=0;entryDy=0;" edge="1" parent="1" source="YayC0Eqr5XEf3r0A4OdQ-14" target="YayC0Eqr5XEf3r0A4OdQ-27">
          <mxGeometry relative="1" as="geometry" />
        </mxCell>
        <mxCell id="YayC0Eqr5XEf3r0A4OdQ-14" value="Função verifica_usuario" style="shape=process;whiteSpace=wrap;html=1;backgroundOutline=1;fillColor=#e1d5e7;strokeColor=#9673a6;" vertex="1" parent="1">
          <mxGeometry x="550" y="148.75" width="130" height="52.5" as="geometry" />
        </mxCell>
        <mxCell id="YayC0Eqr5XEf3r0A4OdQ-16" value="Conecta-se ao BD" style="rounded=1;whiteSpace=wrap;html=1;" vertex="1" parent="1">
          <mxGeometry x="610" y="220" width="120" height="30" as="geometry" />
        </mxCell>
        <mxCell id="YayC0Eqr5XEf3r0A4OdQ-17" value="Siglas:&lt;div&gt;BD = Banco de Dados&lt;br&gt;User = Usuário&lt;/div&gt;" style="text;html=1;align=center;verticalAlign=middle;resizable=0;points=[];autosize=1;strokeColor=none;fillColor=none;" vertex="1" parent="1">
          <mxGeometry y="530" width="140" height="60" as="geometry" />
        </mxCell>
        <mxCell id="YayC0Eqr5XEf3r0A4OdQ-21" value="Criptografa a senha" style="rounded=1;whiteSpace=wrap;html=1;" vertex="1" parent="1">
          <mxGeometry x="610" y="260" width="120" height="30" as="geometry" />
        </mxCell>
        <mxCell id="YayC0Eqr5XEf3r0A4OdQ-23" value="Busca Usuário no BD" style="rounded=1;whiteSpace=wrap;html=1;" vertex="1" parent="1">
          <mxGeometry x="610" y="300" width="120" height="30" as="geometry" />
        </mxCell>
        <mxCell id="YayC0Eqr5XEf3r0A4OdQ-29" style="edgeStyle=orthogonalEdgeStyle;rounded=0;orthogonalLoop=1;jettySize=auto;html=1;exitX=1;exitY=0.5;exitDx=0;exitDy=0;entryX=1;entryY=0.5;entryDx=0;entryDy=0;" edge="1" parent="1" source="YayC0Eqr5XEf3r0A4OdQ-25" target="YayC0Eqr5XEf3r0A4OdQ-30">
          <mxGeometry relative="1" as="geometry">
            <mxPoint x="910" y="520" as="targetPoint" />
            <Array as="points">
              <mxPoint x="820" y="175" />
              <mxPoint x="820" y="495" />
            </Array>
          </mxGeometry>
        </mxCell>
        <mxCell id="YayC0Eqr5XEf3r0A4OdQ-33" style="edgeStyle=orthogonalEdgeStyle;rounded=0;orthogonalLoop=1;jettySize=auto;html=1;exitX=1;exitY=0.5;exitDx=0;exitDy=0;entryX=1;entryY=0.5;entryDx=0;entryDy=0;" edge="1" parent="1" source="YayC0Eqr5XEf3r0A4OdQ-25" target="YayC0Eqr5XEf3r0A4OdQ-32">
          <mxGeometry relative="1" as="geometry">
            <Array as="points">
              <mxPoint x="820" y="175" />
              <mxPoint x="820" y="590" />
            </Array>
          </mxGeometry>
        </mxCell>
        <mxCell id="YayC0Eqr5XEf3r0A4OdQ-25" value="Usuário encontrado e ativo?" style="rhombus;whiteSpace=wrap;html=1;fillColor=#e1d5e7;strokeColor=#9673a6;" vertex="1" parent="1">
          <mxGeometry x="705" y="127.5" width="100" height="95" as="geometry" />
        </mxCell>
        <mxCell id="YayC0Eqr5XEf3r0A4OdQ-27" value="Verifica se a senha está correta com o usuário" style="rounded=1;whiteSpace=wrap;html=1;" vertex="1" parent="1">
          <mxGeometry x="610" y="340" width="120" height="50" as="geometry" />
        </mxCell>
        <mxCell id="YayC0Eqr5XEf3r0A4OdQ-38" style="edgeStyle=orthogonalEdgeStyle;rounded=0;orthogonalLoop=1;jettySize=auto;html=1;exitX=0;exitY=0.5;exitDx=0;exitDy=0;entryX=1;entryY=0.5;entryDx=0;entryDy=0;" edge="1" parent="1" source="YayC0Eqr5XEf3r0A4OdQ-30" target="YayC0Eqr5XEf3r0A4OdQ-37">
          <mxGeometry relative="1" as="geometry" />
        </mxCell>
        <mxCell id="YayC0Eqr5XEf3r0A4OdQ-30" value="Retorna sucesso (200) + dados do usuário" style="rounded=0;whiteSpace=wrap;html=1;fillColor=#ffe6cc;strokeColor=#d79b00;" vertex="1" parent="1">
          <mxGeometry x="650" y="465" width="120" height="60" as="geometry" />
        </mxCell>
        <mxCell id="YayC0Eqr5XEf3r0A4OdQ-31" value="Sim" style="text;html=1;align=center;verticalAlign=middle;resizable=0;points=[];autosize=1;strokeColor=none;fillColor=none;" vertex="1" parent="1">
          <mxGeometry x="780" y="465" width="40" height="30" as="geometry" />
        </mxCell>
        <mxCell id="YayC0Eqr5XEf3r0A4OdQ-39" style="edgeStyle=orthogonalEdgeStyle;rounded=0;orthogonalLoop=1;jettySize=auto;html=1;exitX=0;exitY=0.5;exitDx=0;exitDy=0;entryX=1;entryY=0.5;entryDx=0;entryDy=0;" edge="1" parent="1" source="YayC0Eqr5XEf3r0A4OdQ-32" target="YayC0Eqr5XEf3r0A4OdQ-37">
          <mxGeometry relative="1" as="geometry" />
        </mxCell>
        <mxCell id="YayC0Eqr5XEf3r0A4OdQ-32" value="Retorna erro (401)&lt;div&gt;Credenciais erradas&lt;/div&gt;" style="rounded=0;whiteSpace=wrap;html=1;fillColor=#ffe6cc;strokeColor=#d79b00;" vertex="1" parent="1">
          <mxGeometry x="650" y="560" width="120" height="60" as="geometry" />
        </mxCell>
        <mxCell id="YayC0Eqr5XEf3r0A4OdQ-34" value="Não" style="text;html=1;align=center;verticalAlign=middle;resizable=0;points=[];autosize=1;strokeColor=none;fillColor=none;" vertex="1" parent="1">
          <mxGeometry x="775" y="560" width="50" height="30" as="geometry" />
        </mxCell>
        <mxCell id="YayC0Eqr5XEf3r0A4OdQ-41" style="edgeStyle=orthogonalEdgeStyle;rounded=0;orthogonalLoop=1;jettySize=auto;html=1;exitX=0;exitY=0.5;exitDx=0;exitDy=0;entryX=1;entryY=0.5;entryDx=0;entryDy=0;" edge="1" parent="1" source="YayC0Eqr5XEf3r0A4OdQ-37" target="YayC0Eqr5XEf3r0A4OdQ-40">
          <mxGeometry relative="1" as="geometry" />
        </mxCell>
        <mxCell id="YayC0Eqr5XEf3r0A4OdQ-37" value="Front-end&lt;br&gt;Recebe a resposta" style="rounded=1;whiteSpace=wrap;html=1;fillColor=#fff2cc;strokeColor=#d6b656;" vertex="1" parent="1">
          <mxGeometry x="480" y="510" width="120" height="60" as="geometry" />
        </mxCell>
        <mxCell id="YayC0Eqr5XEf3r0A4OdQ-43" style="edgeStyle=orthogonalEdgeStyle;rounded=0;orthogonalLoop=1;jettySize=auto;html=1;exitX=0.5;exitY=0;exitDx=0;exitDy=0;entryX=1;entryY=0.5;entryDx=0;entryDy=0;" edge="1" parent="1" source="YayC0Eqr5XEf3r0A4OdQ-40" target="YayC0Eqr5XEf3r0A4OdQ-42">
          <mxGeometry relative="1" as="geometry">
            <Array as="points">
              <mxPoint x="488" y="310" />
            </Array>
          </mxGeometry>
        </mxCell>
        <mxCell id="YayC0Eqr5XEf3r0A4OdQ-40" value="Método de direcionamento&lt;br&gt;Resposta.sucesso?" style="rhombus;whiteSpace=wrap;html=1;fillColor=#e1d5e7;strokeColor=#9673a6;" vertex="1" parent="1">
          <mxGeometry x="400" y="310" width="176" height="150" as="geometry" />
        </mxCell>
        <mxCell id="YayC0Eqr5XEf3r0A4OdQ-54" style="edgeStyle=orthogonalEdgeStyle;rounded=0;orthogonalLoop=1;jettySize=auto;html=1;exitX=0;exitY=0.5;exitDx=0;exitDy=0;entryX=1;entryY=0.5;entryDx=0;entryDy=0;" edge="1" parent="1" source="YayC0Eqr5XEf3r0A4OdQ-42" target="YayC0Eqr5XEf3r0A4OdQ-53">
          <mxGeometry relative="1" as="geometry" />
        </mxCell>
        <mxCell id="YayC0Eqr5XEf3r0A4OdQ-42" value="Exibe mensagem de erro" style="rounded=1;whiteSpace=wrap;html=1;fillColor=#fff2cc;strokeColor=#d6b656;" vertex="1" parent="1">
          <mxGeometry x="254" y="280" width="120" height="60" as="geometry" />
        </mxCell>
        <mxCell id="YayC0Eqr5XEf3r0A4OdQ-44" value="Não" style="text;html=1;align=center;verticalAlign=middle;resizable=0;points=[];autosize=1;strokeColor=none;fillColor=none;" vertex="1" parent="1">
          <mxGeometry x="400" y="280" width="50" height="30" as="geometry" />
        </mxCell>
        <mxCell id="YayC0Eqr5XEf3r0A4OdQ-50" style="edgeStyle=orthogonalEdgeStyle;rounded=0;orthogonalLoop=1;jettySize=auto;html=1;exitX=0;exitY=0.5;exitDx=0;exitDy=0;entryX=1;entryY=0.5;entryDx=0;entryDy=0;" edge="1" parent="1" source="YayC0Eqr5XEf3r0A4OdQ-45" target="YayC0Eqr5XEf3r0A4OdQ-49">
          <mxGeometry relative="1" as="geometry" />
        </mxCell>
        <mxCell id="YayC0Eqr5XEf3r0A4OdQ-45" value="Salva os dados do user no Local Storage" style="rounded=1;whiteSpace=wrap;html=1;fillColor=#fff2cc;strokeColor=#d6b656;" vertex="1" parent="1">
          <mxGeometry x="251" y="420" width="126" height="70" as="geometry" />
        </mxCell>
        <mxCell id="YayC0Eqr5XEf3r0A4OdQ-47" value="Sim" style="text;html=1;align=center;verticalAlign=middle;resizable=0;points=[];autosize=1;strokeColor=none;fillColor=none;" vertex="1" parent="1">
          <mxGeometry x="405" y="430" width="40" height="30" as="geometry" />
        </mxCell>
        <mxCell id="YayC0Eqr5XEf3r0A4OdQ-48" style="edgeStyle=orthogonalEdgeStyle;rounded=0;orthogonalLoop=1;jettySize=auto;html=1;exitX=0.5;exitY=1;exitDx=0;exitDy=0;entryX=0.987;entryY=0.581;entryDx=0;entryDy=0;entryPerimeter=0;" edge="1" parent="1" source="YayC0Eqr5XEf3r0A4OdQ-40" target="YayC0Eqr5XEf3r0A4OdQ-45">
          <mxGeometry relative="1" as="geometry">
            <Array as="points">
              <mxPoint x="480" y="460" />
              <mxPoint x="399" y="460" />
            </Array>
          </mxGeometry>
        </mxCell>
        <mxCell id="YayC0Eqr5XEf3r0A4OdQ-49" value="Redireciona para a págia do DashBoard, considerando o cargo" style="rounded=1;whiteSpace=wrap;html=1;fillColor=#fff2cc;strokeColor=#d6b656;" vertex="1" parent="1">
          <mxGeometry x="60" y="412.5" width="140" height="85" as="geometry" />
        </mxCell>
        <mxCell id="YayC0Eqr5XEf3r0A4OdQ-53" value="Limpa os dados dos Inputs de Usuário e Senha" style="rounded=1;whiteSpace=wrap;html=1;fillColor=#fff2cc;strokeColor=#d6b656;" vertex="1" parent="1">
          <mxGeometry x="80" y="275" width="130" height="70" as="geometry" />
        </mxCell>
      </root>
    </mxGraphModel>
  </diagram>
</mxfile>
